<svg width="58" height="62" viewBox="0 0 58 62" fill="none" xmlns="http://www.w3.org/2000/svg">
<path d="M3.8231 0.0507993C3.94321 0.0502138 4.06331 0.0496283 4.18706 0.049025C4.38426 0.0490614 4.38426 0.0490614 4.58545 0.0490984C4.7255 0.0486155 4.86554 0.0481326 5.00983 0.0476351C5.48069 0.0461847 5.95155 0.0456804 6.42241 0.0451803C6.75939 0.0443576 7.09637 0.0434845 7.43335 0.0425649C8.44571 0.0400391 9.45807 0.0386471 10.4704 0.0374783C10.9475 0.0369022 11.4245 0.0361974 11.9015 0.0355096C13.4877 0.0332753 15.0739 0.0313717 16.6601 0.0304202C17.0716 0.0301693 17.4831 0.0299171 17.8946 0.0296602C17.9969 0.0295967 18.0991 0.0295331 18.2045 0.0294677C19.8607 0.0283779 21.5168 0.0250506 23.1729 0.0207839C24.8741 0.016437 26.5753 0.0140743 28.2766 0.0136549C29.2314 0.0133708 30.1862 0.0122262 31.141 0.00886594C32.0394 0.00571122 32.9378 0.00525179 33.8363 0.00660176C34.1657 0.00666686 34.4952 0.0058356 34.8246 0.0040332C35.2751 0.00170675 35.7254 0.00263901 36.1759 0.00436588C36.3705 0.00220477 36.3705 0.00220477 36.569 0C37.6346 0.00983101 38.4853 0.289829 39.3771 0.872909C40.6632 2.21749 40.8283 3.54926 40.8184 5.33346C40.8183 5.52103 40.8184 5.7086 40.8185 5.89617C40.8187 6.29873 40.8181 6.70127 40.817 7.10382C40.8154 7.74085 40.8163 8.37785 40.8177 9.01487C40.8215 10.8258 40.8231 12.6368 40.8192 14.4477C40.8171 15.449 40.8178 16.4502 40.8215 17.4514C40.8234 17.9807 40.8238 18.5098 40.8207 19.0391C40.8178 19.5368 40.8185 20.0343 40.822 20.532C40.8227 20.7142 40.8219 20.8964 40.8198 21.0786C40.7865 22.2292 40.7866 22.2292 41.2994 23.2157C41.5012 23.4127 41.5012 23.4127 41.7084 23.579C41.8198 23.6802 41.9312 23.7814 42.046 23.8858C42.4137 24.1793 42.7823 24.4715 43.1532 24.761C43.2753 24.8589 43.3973 24.9568 43.5231 25.0576C46.1786 27.1314 49.153 28.1879 52.4219 28.8786C52.7454 28.9652 52.99 29.037 53.2667 29.2267C53.4872 29.6821 53.5636 30.0554 53.5712 30.5586C53.5738 30.6906 53.5764 30.8226 53.5791 30.9586C53.5806 31.1007 53.5822 31.2429 53.5837 31.3893C53.5876 31.6125 53.5876 31.6125 53.5915 31.8402C53.5994 32.3235 53.6055 32.8068 53.6114 33.2902C53.6162 33.6222 53.6211 33.9541 53.626 34.2861C53.6374 35.0876 53.647 35.8891 53.6559 36.6906C53.6601 37.0532 53.6648 37.4158 53.67 37.7783C53.6937 39.4805 53.6757 41.1715 53.554 42.8701C53.5402 43.0656 53.5402 43.0656 53.5261 43.265C53.4778 43.8413 53.4255 44.3707 53.2588 44.927C52.7675 46.6787 53.4282 47.885 54.1861 49.4701C54.3087 49.7372 54.4308 50.0046 54.5523 50.2723C54.7944 50.804 55.0391 51.3343 55.2864 51.8636C55.717 52.7875 56.1279 53.7195 56.5323 54.6551C56.6378 54.8982 56.7452 55.1404 56.8527 55.3827C56.9159 55.5269 56.9792 55.6711 57.0443 55.8197C57.0985 55.9422 57.1526 56.0647 57.2083 56.1909C57.3492 56.576 57.4296 56.9263 57.4697 57.3343C57.1898 57.9339 57.1898 57.9339 56.8129 58.1224C56.0322 58.2182 55.4379 57.9142 54.7412 57.6052C54.6199 57.5527 54.4985 57.5002 54.3735 57.4462C53.9876 57.2789 53.6025 57.1096 53.2174 56.9403C52.9553 56.8262 52.6931 56.7123 52.4309 56.5986C51.7894 56.3199 51.1487 56.0397 50.5084 55.7582C50.4939 55.8685 50.4793 55.9789 50.4642 56.0926C50.3696 56.5852 50.2143 57.0345 50.0333 57.5C49.9995 57.5883 49.9656 57.6767 49.9307 57.7677C49.8593 57.9531 49.7876 58.1385 49.7154 58.3236C49.6054 58.6067 49.4974 58.8905 49.3894 59.1744C49.3196 59.3551 49.2497 59.5358 49.1796 59.7164C49.1476 59.801 49.1155 59.8856 49.0825 59.9727C48.9161 60.3951 48.7728 60.7324 48.4069 61.0119C48.0227 61.1434 47.8119 61.1607 47.4197 61.05C47.0226 60.8437 46.9522 60.7043 46.7836 60.2957C46.7069 60.1145 46.7069 60.1145 46.6286 59.9296C46.5761 59.7992 46.5237 59.6687 46.4696 59.5343C46.3861 59.3344 46.3861 59.3344 46.3009 59.1305C46.1249 58.7078 45.9524 58.2838 45.7801 57.8597C45.6643 57.5786 45.5483 57.2976 45.4322 57.0167C45.1515 56.3356 44.8736 55.6533 44.598 54.9701C44.0714 55.1662 43.5948 55.4148 43.105 55.6894C42.9437 55.7784 42.7825 55.8674 42.6211 55.9562C42.3696 56.0951 42.1184 56.2345 41.8682 56.3756C41.6247 56.5126 41.3799 56.6471 41.1348 56.7812C40.9897 56.8621 40.8446 56.9429 40.6952 57.0263C40.0817 57.2775 39.6068 57.3007 38.9834 57.0687C38.87 57.0068 38.7566 56.945 38.6398 56.8813C38.5124 56.8131 38.385 56.745 38.2537 56.6748C38.1233 56.6025 37.9928 56.5303 37.8584 56.4559C37.599 56.3158 37.3396 56.1757 37.0801 56.0357C36.9662 55.9731 36.8524 55.9106 36.7351 55.8461C36.1656 55.5429 35.5879 55.2567 35.0099 54.9701C34.9811 55.04 34.9524 55.1099 34.9228 55.1819C34.6235 55.9089 34.3229 56.6353 34.0214 57.3615C33.9091 57.6325 33.7971 57.9038 33.6855 58.1752C33.525 58.5652 33.3633 58.9546 33.2013 59.344C33.1517 59.4655 33.102 59.587 33.0508 59.7122C33.0035 59.8252 32.9562 59.9382 32.9074 60.0547C32.8458 60.2039 32.8458 60.2039 32.7828 60.3561C32.5711 60.7602 32.3727 60.9705 31.9397 61.1186C31.5173 61.1488 31.3109 61.0805 30.9382 60.8806C30.7535 60.5764 30.7535 60.5764 30.6099 60.1967C30.556 60.0579 30.5021 59.9191 30.4466 59.7762C30.3921 59.6286 30.3377 59.4811 30.2815 59.3291C30.2245 59.1804 30.1674 59.0318 30.1087 58.8786C29.9454 58.4521 29.785 58.0246 29.6248 57.597C29.5482 57.3978 29.4713 57.1987 29.3939 56.9998C29.2502 56.6303 29.1081 56.2604 28.9681 55.8895C28.2133 56.1169 27.4976 56.4018 26.7788 56.7243C26.6433 56.7849 26.6433 56.7849 26.5051 56.8468C26.1273 57.0163 25.7499 57.1865 25.3732 57.3584C25.0953 57.4849 24.8166 57.6095 24.5378 57.734C24.4536 57.773 24.3695 57.8119 24.2827 57.8521C23.7667 58.0806 23.3583 58.1871 22.7949 58.1224C22.4091 57.8515 22.4091 57.8515 22.1382 57.4656C22.1757 56.7234 22.4172 56.1197 22.7133 55.4508C22.7569 55.3501 22.8004 55.2494 22.8453 55.1456C22.9834 54.8267 23.1231 54.5085 23.2628 54.1903C23.3572 53.973 23.4516 53.7557 23.5458 53.5384C23.7759 53.0082 24.0074 52.4785 24.2397 51.9492C24.0851 51.9485 24.0851 51.9485 23.9275 51.9479C21.417 51.9372 18.9064 51.9251 16.3959 51.9114C15.1819 51.9049 13.9678 51.8988 12.7537 51.8938C11.6952 51.8895 10.6366 51.8842 9.57805 51.8779C9.01789 51.8746 8.45774 51.8717 7.89757 51.87C7.36954 51.8683 6.84152 51.8654 6.31349 51.8615C6.12046 51.8604 5.92743 51.8596 5.73439 51.8593C4.08185 51.8566 2.54657 51.8118 1.25762 50.6681C0.1393 49.4903 -0.00499708 48.2357 0.00573195 46.6649C0.00512567 46.4778 0.00429058 46.2907 0.00324832 46.1036C0.00106524 45.5924 0.00213443 45.0813 0.00376639 44.5701C0.00495872 44.0177 0.00311862 43.4653 0.00167556 42.9129C-0.000657181 41.8319 -0.000157554 40.7509 0.00136692 39.6698C0.00255476 38.7911 0.00271381 37.9123 0.00214253 37.0335C0.00206202 36.9083 0.00198147 36.7831 0.00189852 36.6541C0.00173054 36.3997 0.00156038 36.1454 0.00138772 35.891C-0.000109417 33.5073 0.00161049 31.1236 0.00443502 28.7399C0.00678218 26.6958 0.00637439 24.6518 0.00395227 22.6077C0.00113896 20.2323 3.4693e-05 17.857 0.001647 15.4817C0.00181436 15.2283 0.00197958 14.9748 0.00214253 14.7214C0.00222358 14.5967 0.00230453 14.4721 0.00238804 14.3436C0.00284113 13.4662 0.00207722 12.5887 0.000839833 11.7113C-0.000635588 10.6416 -0.000230935 9.57189 0.0025634 8.50218C0.00394153 7.95668 0.00448935 7.41122 0.00274778 6.86573C0.00117596 6.36583 0.00205298 5.866 0.0048376 5.36611C0.00569738 5.10077 0.00399284 4.83543 0.00218061 4.57009C0.0140519 3.18674 0.292264 2.11186 1.25454 1.08737C2.00457 0.428161 2.82467 0.0530628 3.8231 0.0507993ZM2.39559 2.90053C2.05254 3.39604 2.026 3.77055 2.02497 4.35842C2.02439 4.51427 2.0238 4.67013 2.0232 4.83071C2.02322 5.00278 2.02325 5.17485 2.02327 5.35214C2.02284 5.53612 2.02235 5.7201 2.02181 5.90407C2.02049 6.41082 2.02 6.91757 2.01966 7.42431C2.01914 7.97039 2.01789 8.51646 2.01674 9.06253C2.01414 10.3818 2.01282 11.701 2.01165 13.0202C2.01108 13.6412 2.01037 14.2621 2.00968 14.8831C2.00745 16.9467 2.00554 19.0102 2.00459 21.0738C2.00434 21.6094 2.00409 22.145 2.00383 22.6806C2.00377 22.8137 2.00371 22.9469 2.00364 23.084C2.00255 25.2416 1.99922 27.3992 1.99496 29.5568C1.99062 31.771 1.98825 33.9851 1.98783 36.1993C1.98754 37.4429 1.98639 38.6864 1.98304 39.93C1.98019 40.9889 1.97913 42.0477 1.98041 43.1065C1.98101 43.6469 1.98075 44.1872 1.97821 44.7276C1.9759 45.2222 1.97601 45.7168 1.97806 46.2114C1.97852 46.4753 1.97639 46.7391 1.97417 47.0029C1.97867 48.1375 1.97867 48.1375 2.56798 49.0596C3.27163 49.7263 3.96284 49.8808 4.91531 49.8793C5.00287 49.8795 5.09043 49.8797 5.18065 49.88C5.47226 49.8804 5.76384 49.879 6.05545 49.8775C6.26519 49.8774 6.47494 49.8775 6.68469 49.8776C7.25288 49.8777 7.82106 49.8762 8.38925 49.8743C8.98349 49.8727 9.57774 49.8725 10.172 49.8722C11.2967 49.8714 12.4215 49.8693 13.5462 49.8666C14.8269 49.8637 16.1077 49.8622 17.3884 49.8609C20.0224 49.8582 22.6564 49.8536 25.2904 49.8477C25.5366 49.3215 25.7779 48.7932 26.0185 48.2644C26.0881 48.1156 26.1578 47.9669 26.2296 47.8136C26.6872 46.7992 26.8608 46.2588 26.4972 45.1968C25.5593 42.3616 26.0442 38.7444 26.0785 35.7939C26.0801 35.6543 26.0817 35.5147 26.0833 35.3709C26.0932 34.5273 26.1054 33.6837 26.1206 32.8401C26.1253 32.5722 26.1298 32.3042 26.1338 32.0363C26.1397 31.6632 26.1473 31.2903 26.1555 30.9173C26.157 30.8066 26.1585 30.6959 26.1601 30.5819C26.1858 29.5729 26.1858 29.5729 26.4725 29.2267C26.7521 29.1093 26.7521 29.1093 27.1 29.0354C27.2286 29.0063 27.3571 28.9772 27.4896 28.9472C27.628 28.9176 27.7665 28.8879 27.9091 28.8573C31.8091 27.9464 35.1528 26.2429 38.0308 23.4476C38.1662 23.3477 38.3015 23.2479 38.441 23.145C38.9528 22.6262 38.9146 22.0714 38.9227 21.3729C38.9207 21.2005 38.9187 21.0282 38.9166 20.8506C38.9173 20.6658 38.9183 20.4811 38.9196 20.2963C38.922 19.7958 38.9196 19.2955 38.916 18.7951C38.9131 18.2704 38.9142 17.7457 38.9147 17.221C38.9149 16.3397 38.912 15.4584 38.9072 14.5771C38.9016 13.5599 38.9007 12.5427 38.9023 11.5255C38.9038 10.5452 38.9023 9.56497 38.8994 8.5847C38.8982 8.16838 38.8979 7.75208 38.8985 7.33576C38.899 6.84478 38.8968 6.35387 38.8927 5.86291C38.891 5.59805 38.892 5.33317 38.893 5.06831C38.882 4.1286 38.8093 3.49009 38.2935 2.6953C37.7774 2.20439 37.3755 2.02258 36.6693 2.02096C36.5514 2.02037 36.4335 2.01978 36.312 2.01918C36.1824 2.01921 36.0527 2.01923 35.9192 2.01925C35.7815 2.01877 35.6439 2.01829 35.5021 2.01779C35.0387 2.01634 34.5753 2.01584 34.1119 2.01534C33.7805 2.01451 33.4492 2.01364 33.1178 2.01272C32.122 2.01019 31.1261 2.0088 30.1303 2.00763C29.6614 2.00706 29.1924 2.00635 28.7235 2.00567C27.1649 2.00343 25.6063 2.00153 24.0477 2.00058C23.6433 2.00033 23.2389 2.00007 22.8344 1.99982C22.7339 1.99975 22.6334 1.99969 22.5298 1.99962C20.9009 1.99853 19.272 1.9952 17.6432 1.99094C15.971 1.9866 14.2989 1.98423 12.6268 1.98381C11.6879 1.98353 10.7489 1.98238 9.81001 1.97902C8.92697 1.97588 8.04397 1.9754 7.16093 1.97676C6.83657 1.97682 6.51221 1.97599 6.18785 1.97419C5.74552 1.97187 5.30331 1.97279 4.86098 1.97452C4.73221 1.97308 4.60343 1.97164 4.47075 1.97016C3.54126 1.97897 3.03281 2.19442 2.39559 2.90053ZM39.18 28.8245C37.0919 30.7118 34.7067 31.8631 32.0335 32.6776C31.6666 32.7916 31.3024 32.9133 30.9382 33.0357C30.9157 33.883 30.8948 34.7304 30.8749 35.5778C30.868 35.8647 30.8607 36.1516 30.8531 36.4386C30.5636 42.0569 30.5636 42.0569 32.9328 46.9483C34.3588 48.3847 36.1301 49.3589 37.8792 50.3438C38.1279 50.485 38.3742 50.6293 38.6198 50.7758C38.7451 50.8488 38.8704 50.9218 38.9994 50.997C39.1034 51.0586 39.2074 51.1202 39.3145 51.1837C39.6929 51.3245 39.8752 51.2653 40.2636 51.1611C40.5025 51.0498 40.737 50.929 40.9675 50.8015C41.1022 50.727 41.2369 50.6526 41.3757 50.5759C41.518 50.4954 41.6603 50.4149 41.8069 50.332C41.9534 50.2494 42.0998 50.1667 42.2507 50.0815C44.8803 48.5765 47.4108 46.9601 48.3248 43.9044C48.6839 42.5745 48.6874 41.2773 48.6824 39.9107C48.6822 39.712 48.682 39.5132 48.6819 39.3145C48.6814 38.7946 48.6801 38.2746 48.6786 37.7547C48.6773 37.2229 48.6767 36.691 48.676 36.1592C48.6746 35.118 48.6724 34.0769 48.6696 33.0357C48.5694 33.0033 48.4691 32.971 48.3658 32.9376C47.9043 32.788 47.4432 32.6368 46.9822 32.4857C46.8245 32.4348 46.6669 32.3839 46.5044 32.3315C44.0271 31.516 41.9985 30.2637 40.0856 28.4956C39.6696 28.133 39.535 28.4896 39.18 28.8245Z" fill="#293C95"/>
<path d="M8.00994 5.15557C8.10684 5.15497 8.20374 5.15438 8.30357 5.15377C8.62762 5.15211 8.95164 5.15232 9.2757 5.15253C9.50831 5.15175 9.74092 5.15085 9.97352 5.14986C10.605 5.14754 11.2365 5.14693 11.868 5.14676C12.2627 5.14657 12.6574 5.14601 13.0521 5.14531C14.4295 5.14288 15.8069 5.14181 17.1843 5.14202C18.4675 5.14217 19.7507 5.1394 21.0339 5.13525C22.1362 5.13182 23.2385 5.13041 24.3408 5.13058C24.9989 5.13065 25.6569 5.1299 26.315 5.12712C26.9341 5.12457 27.5532 5.12456 28.1724 5.12646C28.3992 5.12674 28.626 5.12612 28.8528 5.12453C30.9821 5.11057 30.9821 5.11057 31.8595 5.71607C32.1299 5.98337 32.1299 5.98337 32.311 6.24965C32.3731 6.33786 32.4352 6.42607 32.4993 6.51696C32.8286 7.07191 32.8 7.61372 32.8021 8.23786C32.803 8.34769 32.8039 8.45751 32.8047 8.57066C32.8073 8.93445 32.8089 9.29823 32.8102 9.66202C32.8107 9.78642 32.8112 9.91081 32.8118 10.039C32.8145 10.6976 32.8164 11.3563 32.8176 12.015C32.8191 12.6941 32.8236 13.3731 32.8288 14.0522C32.8323 14.5754 32.8334 15.0986 32.8338 15.6217C32.8345 15.872 32.836 16.1222 32.8384 16.3725C32.8417 16.7236 32.8415 17.0746 32.8406 17.4258C32.8431 17.5794 32.8431 17.5794 32.8457 17.7362C32.8377 18.5838 32.5752 19.25 32.0334 19.9043C31.9625 19.9629 31.8915 20.0214 31.8184 20.0818C31.7135 20.1727 31.7135 20.1727 31.6065 20.2655C30.9271 20.6672 30.2069 20.7223 29.4336 20.7235C29.2919 20.7242 29.2919 20.7242 29.1474 20.725C28.8333 20.7264 28.5191 20.7259 28.205 20.7253C27.9788 20.7259 27.7526 20.7266 27.5264 20.7274C26.9137 20.7291 26.3009 20.7292 25.6882 20.7289C25.1761 20.7287 24.6639 20.7294 24.1518 20.73C22.9434 20.7315 21.735 20.7315 20.5266 20.7307C19.2812 20.7299 18.0358 20.7315 16.7903 20.7343C15.7198 20.7367 14.6493 20.7374 13.5788 20.737C12.9399 20.7368 12.3011 20.7371 11.6623 20.7389C11.0615 20.7406 10.4607 20.7403 9.85986 20.7386C9.63982 20.7383 9.41977 20.7387 9.19973 20.7398C7.73162 20.7465 6.56589 20.7193 5.45939 19.6385C4.94077 18.9053 4.91385 18.268 4.91077 17.3886C4.9099 17.2813 4.90904 17.174 4.90815 17.0635C4.90556 16.709 4.90403 16.3544 4.90272 15.9999C4.90218 15.8785 4.90165 15.7571 4.90109 15.6321C4.89836 14.9896 4.89648 14.3471 4.89525 13.7046C4.89379 13.0424 4.88927 12.3803 4.88406 11.7182C4.88062 11.2077 4.87952 10.6973 4.87905 10.1868C4.87842 9.94282 4.87689 9.69881 4.87445 9.4548C4.87124 9.11248 4.87138 8.77031 4.87229 8.42798C4.8706 8.32819 4.86892 8.2284 4.86719 8.12559C4.87526 7.28763 5.13911 6.6126 5.68873 5.97568C5.76204 5.9171 5.83535 5.85852 5.91088 5.79816C5.98386 5.73755 6.05683 5.67693 6.13201 5.61448C6.74903 5.21169 7.27955 5.15742 8.00994 5.15557ZM6.90417 7.42354C6.85197 7.78716 6.83365 8.09894 6.83827 8.46274C6.83756 8.5685 6.83685 8.67425 6.83612 8.78321C6.83448 9.13315 6.83665 9.48294 6.83901 9.83287C6.83899 10.0758 6.83879 10.3187 6.83843 10.5616C6.83825 11.0708 6.8399 11.58 6.84289 12.0893C6.84662 12.7425 6.84626 13.3957 6.84459 14.049C6.84367 14.5506 6.84469 15.0522 6.84633 15.5539C6.84692 15.7947 6.84696 16.0356 6.84645 16.2765C6.84607 16.613 6.84823 16.9494 6.8511 17.2859C6.85051 17.3858 6.84992 17.4857 6.84931 17.5886C6.85184 18.0934 6.85184 18.0934 7.04678 18.5476C7.43115 18.8098 7.75806 18.7691 8.21964 18.77C8.314 18.7707 8.40837 18.7714 8.50559 18.7722C8.82262 18.774 9.13958 18.7731 9.45662 18.7722C9.68357 18.7729 9.91052 18.7738 10.1375 18.7749C10.7546 18.7773 11.3716 18.7771 11.9887 18.7764C12.5035 18.7759 13.0183 18.7767 13.533 18.7775C14.7472 18.7794 15.9613 18.7792 17.1755 18.7777C18.429 18.7762 19.6825 18.778 20.936 18.7815C22.0114 18.7845 23.0868 18.7853 24.1622 18.7846C24.8048 18.7841 25.4475 18.7844 26.0901 18.7867C26.6944 18.7887 27.2986 18.7882 27.9028 18.7857C28.1248 18.7852 28.3468 18.7857 28.5687 18.787C28.8714 18.7888 29.1739 18.7873 29.4766 18.7849C29.646 18.7849 29.8155 18.7849 29.9901 18.7848C30.4228 18.752 30.4228 18.752 30.7318 18.4809C31.0325 18.0662 31.0146 17.6732 31.0101 17.1799C31.0113 17.0784 31.0124 16.9769 31.0136 16.8723C31.0165 16.5372 31.0157 16.2022 31.0145 15.867C31.0151 15.6337 31.016 15.4005 31.0169 15.1672C31.0183 14.6784 31.0177 14.1897 31.0158 13.7009C31.0135 13.0748 31.0166 12.449 31.0212 11.823C31.0241 11.3413 31.0239 10.8596 31.0228 10.3779C31.0227 10.1471 31.0236 9.91632 31.0256 9.68555C31.0279 9.3626 31.0259 9.03993 31.023 8.717C31.0245 8.62193 31.026 8.52686 31.0276 8.42892C31.0186 7.9513 30.9613 7.71347 30.6655 7.33332C30.1877 6.95343 29.9456 6.94754 29.3403 6.94788C29.2468 6.94704 29.1533 6.9462 29.0569 6.94534C28.7443 6.94334 28.4319 6.94602 28.1192 6.9487C27.8948 6.94824 27.6704 6.9475 27.446 6.94649C26.8371 6.94462 26.2282 6.94686 25.6192 6.94994C24.9821 6.95258 24.345 6.95181 23.7078 6.9515C22.638 6.95151 21.5683 6.95411 20.4985 6.95832C19.2612 6.96317 18.024 6.96432 16.7868 6.9634C15.5969 6.96257 14.407 6.96399 13.2171 6.96655C12.7106 6.96762 12.204 6.96798 11.6975 6.96777C11.1012 6.96766 10.5049 6.96952 9.90863 6.97292C9.68964 6.97387 9.47065 6.97414 9.25166 6.9737C8.95304 6.97321 8.65453 6.97514 8.35592 6.9777C8.18873 6.97819 8.02153 6.97868 7.84927 6.97919C7.40063 7.03297 7.2117 7.09608 6.90417 7.42354Z" fill="#293C95"/>
<path d="M39.7457 25.877C40.1775 25.9508 40.3344 26.0445 40.6467 26.3449C40.782 26.4718 40.782 26.4718 40.9201 26.6014C41.0778 26.7594 41.234 26.9191 41.387 27.0816C43.4039 29.2153 46.3774 30.5863 49.2271 31.1283C49.8192 31.2502 50.1528 31.3567 50.5056 31.8531C50.5872 32.2825 50.5851 32.7078 50.5857 33.144C50.5879 33.2718 50.5901 33.3996 50.5923 33.5313C50.5988 33.946 50.6016 34.3607 50.6042 34.7755C50.6076 35.0598 50.6113 35.3441 50.6151 35.6284C50.6237 36.3108 50.6293 36.9931 50.6341 37.6755C50.6379 38.1301 50.6452 38.5845 50.6529 39.039C50.7002 42.4375 50.5423 45.7312 48.0937 48.3295C46.6995 49.6804 45.088 50.6465 43.4058 51.5978C43.0099 51.8225 42.6167 52.0515 42.2233 52.2806C41.9661 52.4275 41.7087 52.574 41.4511 52.7203C41.3323 52.79 41.2134 52.8596 41.091 52.9314C40.6061 53.2016 40.2461 53.386 39.6877 53.4217C38.9471 53.1743 38.283 52.8104 37.6011 52.433C37.4503 52.3504 37.2994 52.2679 37.144 52.1828C35.2843 51.1587 33.4346 50.0964 31.8548 48.6651C31.7599 48.5808 31.6649 48.4965 31.567 48.4096C29.698 46.6576 29.0717 44.2671 28.9414 41.7724C28.9331 41.3081 28.9322 40.8445 28.935 40.3802C28.9351 40.2105 28.9351 40.0409 28.9352 39.8662C28.9354 39.5099 28.9365 39.1536 28.9382 38.7973C28.9405 38.3482 28.941 37.899 28.9409 37.4498C28.9409 35.9051 28.9421 34.3592 29.0079 32.8156C29.0107 32.7227 29.0136 32.6299 29.0165 32.5342C29.0444 32.0184 29.1112 31.6903 29.4907 31.3277C29.8438 31.2292 30.1736 31.1582 30.5332 31.0979C33.4212 30.5294 36.2353 29.1371 38.2789 26.9918C38.3427 26.9253 38.4065 26.8587 38.4722 26.7901C38.6503 26.6014 38.8249 26.4094 38.9992 26.2171C39.3414 25.9426 39.3414 25.9426 39.7457 25.877ZM39.1773 28.824C37.0891 30.7113 34.7039 31.8626 32.0307 32.677C31.6638 32.7911 31.2997 32.9128 30.9354 33.0352C30.9129 33.8825 30.892 34.7299 30.8721 35.5772C30.8652 35.8642 30.8579 36.1511 30.8503 36.438C30.5608 42.0563 30.5608 42.0563 32.93 46.9478C34.356 48.3842 36.1273 49.3584 37.8764 50.3432C38.1251 50.4845 38.3714 50.6288 38.617 50.7753C38.7423 50.8483 38.8676 50.9213 38.9967 50.9964C39.1006 51.0581 39.2046 51.1197 39.3117 51.1832C39.6901 51.3239 39.8724 51.2648 40.2608 51.1606C40.4997 51.0493 40.7342 50.9285 40.9648 50.801C41.0994 50.7265 41.2341 50.6521 41.3729 50.5753C41.5152 50.4949 41.6575 50.4144 41.8041 50.3315C41.9506 50.2488 42.0971 50.1662 42.248 50.081C44.8775 48.576 47.408 46.9596 48.3221 43.9039C48.6811 42.5739 48.6846 41.2767 48.6797 39.9102C48.6794 39.7115 48.6792 39.5127 48.6791 39.314C48.6786 38.794 48.6773 38.2741 48.6759 37.7542C48.6745 37.2223 48.6739 36.6905 48.6733 36.1587C48.6718 35.1175 48.6696 34.0764 48.6668 33.0352C48.5666 33.0028 48.4663 32.9704 48.3631 32.9371C47.9015 32.7874 47.4404 32.6363 46.9794 32.4852C46.8217 32.4343 46.6641 32.3834 46.5016 32.331C44.0243 31.5155 41.9957 30.2632 40.0828 28.4951C39.6668 28.1325 39.5322 28.4891 39.1773 28.824Z" fill="#293C95"/>
<path d="M39.7379 24.3672C40.5823 25.0831 40.5823 25.0831 40.9276 25.4154C43.7109 28.0636 47.4153 29.788 51.1453 30.5763C51.5588 30.6717 51.5588 30.6717 51.6901 30.803C51.704 31.1289 51.7094 31.4511 51.7092 31.777C51.7097 31.8791 51.7101 31.9812 51.7106 32.0865C51.7118 32.427 51.7121 32.7676 51.7122 33.1082C51.7126 33.3461 51.7131 33.5841 51.7135 33.822C51.7143 34.3234 51.7146 34.8249 51.7145 35.3263C51.7145 35.9613 51.7162 36.5964 51.7185 37.2315C51.72 37.7247 51.7202 38.218 51.7202 38.7113C51.7203 38.9448 51.7209 39.1784 51.7219 39.4119C51.7269 40.6507 51.694 41.8757 51.5749 43.1094C51.5649 43.2147 51.5549 43.32 51.5446 43.4285C51.2721 45.9817 50.2245 48.0532 48.4065 49.8479C48.3121 49.9422 48.2176 50.0365 48.1203 50.1336C46.4879 51.6705 44.4072 52.7294 42.4769 53.835C42.1334 54.0328 41.7919 54.2335 41.451 54.4357C41.2631 54.5455 41.0751 54.6553 40.8871 54.7651C40.8035 54.8154 40.7199 54.8658 40.6337 54.9177C40.0709 55.2418 40.0709 55.2418 39.7609 55.2029C39.0592 54.9542 38.4135 54.5593 37.7595 54.2068C37.6771 54.1626 37.5948 54.1183 37.5099 54.0727C33.8873 52.121 29.7911 49.8266 28.4571 45.6641C27.8921 43.6842 27.8607 41.6058 27.8784 39.5636C27.8792 39.3084 27.8797 39.0532 27.8801 38.798C27.8816 38.1366 27.8855 37.4753 27.8899 36.8139C27.8939 36.1349 27.8957 35.4559 27.8977 34.7769C27.9019 33.4523 27.9086 32.1277 27.9169 30.803C29.1477 30.3876 29.1477 30.3876 29.706 30.2351C33.5592 29.1515 36.9177 27.2229 39.7379 24.3672ZM38.4901 26.7806C36.2033 29.1866 33.1287 30.6946 29.8553 31.2186C29.4093 31.3538 29.3275 31.4524 29.099 31.8538C29.0479 32.185 29.0209 32.4855 29.0108 32.8183C29.0065 32.9196 29.0022 33.0208 28.9978 33.1252C28.9413 34.6457 28.9382 36.1682 28.9361 37.6895C28.9355 38.0458 28.9337 38.4021 28.9307 38.7584C28.8828 43.6377 28.8828 43.6377 31.0692 47.8777C31.1523 47.9756 31.2354 48.0734 31.3211 48.1743C32.9234 49.9036 35.1112 51.0368 37.1552 52.1509C37.4738 52.3262 37.7889 52.5064 38.1032 52.6892C38.2759 52.7874 38.4487 52.8856 38.6214 52.9837C38.7664 53.0673 38.9113 53.151 39.0606 53.2372C39.6918 53.4762 40.1066 53.3918 40.7182 53.1178C41.1029 52.9234 41.4795 52.7179 41.8558 52.5076C42.0628 52.3932 42.0628 52.3932 42.2741 52.2765C44.3039 51.145 46.3216 50.0146 48.0125 48.4031C48.1129 48.3081 48.2133 48.2131 48.3168 48.1153C50.6462 45.7151 50.6985 42.1802 50.6553 39.0397C50.6515 38.8131 50.6515 38.8131 50.6475 38.5819C50.6406 38.1521 50.6368 37.7223 50.6338 37.2924C50.6289 36.5957 50.6211 35.8991 50.6117 35.2025C50.6083 34.9189 50.6057 34.6353 50.6039 34.3517C50.6011 33.9493 50.595 33.547 50.5881 33.1446C50.5878 32.9612 50.5878 32.9612 50.5876 32.774C50.5762 32.104 50.5762 32.104 50.2746 31.5206C49.9827 31.3284 49.7757 31.2349 49.4352 31.1658C49.2772 31.131 49.2772 31.131 49.1159 31.0956C49.0037 31.0722 48.8915 31.0488 48.776 31.0247C45.5545 30.2803 42.9513 28.7122 40.6568 26.3332C40.3465 26.0273 40.2038 25.9555 39.7748 25.8828C39.144 25.9714 38.9027 26.3203 38.4901 26.7806Z" fill="#F7F7F7"/>
<path d="M16.1055 9.08103C17.2075 9.97199 17.9062 10.9296 18.1167 12.3528C18.1558 13.1226 17.9581 13.7481 17.6698 14.4569C17.501 14.8702 17.501 14.8702 17.4108 15.3034C17.6291 15.5666 17.848 15.8293 18.0675 16.0915C18.1414 16.4363 18.1414 16.4363 18.0675 16.7482C17.8622 17.052 17.8622 17.052 17.5421 17.2736C17.0988 17.3557 17.0988 17.3557 16.6227 17.2736C16.3098 17.0367 16.0922 16.7871 15.8346 16.4855C15.7054 16.5277 15.5763 16.5698 15.4432 16.6133C14.3561 16.9217 12.9773 16.96 11.9436 16.4773C10.8178 15.7931 10.1005 14.8597 9.71175 13.5949C9.47409 12.3581 9.76127 11.2835 10.4003 10.2221C11.7525 8.309 14.1368 8.03642 16.1055 9.08103Z" fill="#293C95"/>
<path d="M17.0947 39.9141C17.2292 39.9138 17.3637 39.9135 17.5023 39.9132C17.7863 39.9133 18.0702 39.9151 18.3542 39.9183C18.7884 39.9228 19.2222 39.921 19.6564 39.9185C19.9326 39.9194 20.2088 39.9207 20.485 39.9223C20.6146 39.9217 20.7441 39.921 20.8776 39.9204C21.4111 39.9295 21.7967 39.9609 22.2868 40.1812C22.6698 40.7113 22.6221 41.2096 22.6111 41.8479C22.6111 41.9771 22.6111 42.1063 22.6111 42.2394C22.6104 42.5123 22.6081 42.7852 22.6043 43.0581C22.5988 43.4758 22.5989 43.8933 22.5998 44.3111C22.5984 44.5763 22.5967 44.8416 22.5947 45.1068C22.5947 45.2317 22.5946 45.3567 22.5946 45.4854C22.5925 45.602 22.5904 45.7186 22.5883 45.8387C22.5872 45.941 22.5861 46.0432 22.5849 46.1485C22.519 46.5098 22.3882 46.6911 22.1391 46.9579C21.7731 47.0799 21.5467 47.1071 21.1682 47.1105C21.052 47.1117 20.9358 47.113 20.8161 47.1143C20.6283 47.1151 20.6283 47.1151 20.4367 47.116C20.2431 47.1171 20.2431 47.1171 20.0456 47.1182C19.7725 47.1195 19.4993 47.1203 19.2262 47.1208C18.8088 47.1221 18.3914 47.1262 17.9741 47.1303C17.7086 47.1312 17.4432 47.1319 17.1778 47.1324C17.0531 47.134 16.9285 47.1356 16.8 47.1373C16.1553 47.1351 15.6956 47.1272 15.1779 46.6953C15.0275 46.3945 15.0268 46.2173 15.0212 45.8827C15.0191 45.7691 15.017 45.6555 15.0148 45.5385C15.009 45.0189 15.0036 44.4994 15.0005 43.9797C14.9984 43.7057 14.9948 43.4317 14.9898 43.1577C14.9826 42.7626 14.9797 42.3677 14.9778 41.9725C14.9748 41.8503 14.9718 41.7281 14.9688 41.6022C14.9706 41.0451 14.999 40.7318 15.2922 40.2478C15.8906 39.8823 16.4056 39.9049 17.0947 39.9141Z" fill="#293C95"/>
<path d="M6.57344 39.9732C6.69225 39.9716 6.81107 39.9699 6.93348 39.9681C7.06154 39.9672 7.18961 39.9662 7.32155 39.9652C7.45354 39.9641 7.58553 39.9631 7.72152 39.962C8.00084 39.9602 8.28017 39.9588 8.5595 39.9577C8.98645 39.9555 9.41326 39.9497 9.84017 39.9439C10.1116 39.9426 10.383 39.9414 10.6544 39.9406C10.8457 39.9371 10.8457 39.9371 11.0409 39.9336C11.5703 39.9353 11.9477 39.9617 12.4356 40.1777C12.8236 40.7172 12.7719 41.2324 12.761 41.881C12.761 42.0134 12.761 42.1458 12.761 42.2823C12.7603 42.5619 12.758 42.8416 12.7542 43.1212C12.7487 43.5499 12.7488 43.9783 12.7497 44.407C12.7484 44.6787 12.7467 44.9504 12.7446 45.222C12.7446 45.3505 12.7446 45.479 12.7445 45.6113C12.7424 45.7306 12.7403 45.8498 12.7382 45.9727C12.7371 46.0775 12.736 46.1824 12.7348 46.2905C12.6698 46.6334 12.5628 46.7466 12.289 46.9577C11.923 47.0797 11.6966 47.1069 11.3181 47.1102C11.2019 47.1115 11.0857 47.1127 10.966 47.114C10.7783 47.1149 10.7783 47.1149 10.5867 47.1157C10.3931 47.1168 10.3931 47.1168 10.1955 47.118C9.9224 47.1192 9.64925 47.1201 9.3761 47.1206C8.95869 47.1219 8.54137 47.126 8.12398 47.1301C7.85855 47.131 7.59313 47.1316 7.32771 47.1321C7.20305 47.1338 7.07839 47.1354 6.94995 47.1371C5.83347 47.1333 5.83347 47.1333 5.32779 46.695C5.20784 46.3352 5.17868 46.1172 5.17529 45.7461C5.17402 45.6348 5.17276 45.5234 5.17146 45.4087C5.1709 45.2889 5.17034 45.169 5.16977 45.0455C5.16902 44.922 5.16827 44.7984 5.1675 44.6711C5.16626 44.4098 5.1654 44.1485 5.1649 43.8871C5.16362 43.4873 5.15954 43.0876 5.1554 42.6877C5.15455 42.4339 5.15386 42.18 5.15335 41.9261C5.15173 41.8065 5.15011 41.6869 5.14844 41.5637C5.15135 40.7393 5.15135 40.7393 5.37153 40.3192C5.74352 39.9941 6.10063 39.9791 6.57344 39.9732Z" fill="#293C95"/>
<path d="M23.9042 8.44141C24.922 8.79853 25.34 10.2612 25.7887 11.1932C25.8802 11.3842 25.9717 11.5751 26.0632 11.766C26.1536 11.9534 26.244 12.1408 26.3346 12.3281C26.5136 12.6989 26.691 13.0703 26.8675 13.4423C27.0422 13.8097 27.2222 14.1738 27.4065 14.5365C27.4926 14.7101 27.5788 14.8837 27.6649 15.0573C27.7808 15.2855 27.7808 15.2855 27.899 15.5183C28.0759 16.0375 28.0488 16.3517 27.9184 16.8802C27.6968 17.1429 27.6968 17.1429 27.393 17.2743C27.0072 17.2989 27.0072 17.2989 26.605 17.1429C26.3259 16.8243 26.1411 16.4676 25.9482 16.0922C25.8866 15.9759 25.825 15.8595 25.7615 15.7397C25.2915 14.8301 25.2915 14.8301 25.2915 14.5161C24.2946 14.5161 23.2977 14.5161 22.2706 14.5161C22.2273 14.7328 22.1839 14.9495 22.1393 15.1728C22.0003 15.4671 21.8517 15.7571 21.696 16.0429C21.6164 16.1909 21.5368 16.3389 21.4548 16.4913C21.1066 17.0678 21.1066 17.0678 20.8258 17.2743C20.3329 17.2655 20.0261 17.2439 19.6437 16.9213C19.4625 16.5022 19.5406 16.2732 19.6437 15.8295C19.7792 15.5088 19.9191 15.2025 20.0747 14.8921C20.118 14.8037 20.1613 14.7152 20.2059 14.6241C20.3459 14.3386 20.4873 14.0538 20.6288 13.769C20.7735 13.4754 20.9179 13.1816 21.0622 12.8877C21.1575 12.6939 21.2528 12.5001 21.3483 12.3064C21.6148 11.7648 21.8758 11.2212 22.129 10.6732C22.2086 10.501 22.2086 10.501 22.2899 10.3252C22.3833 10.1216 22.4759 9.91763 22.5674 9.71319C23.1277 8.49788 23.1277 8.49788 23.9042 8.44141Z" fill="#293C95"/>
<path d="M44.4672 34.2176C44.7792 34.3489 44.7792 34.3489 44.9926 34.6116C45.0789 35.4825 44.8968 35.9761 44.4508 36.7131C44.3923 36.814 44.3338 36.9148 44.2736 37.0187C44.0775 37.3559 43.8783 37.6911 43.6791 38.0265C43.538 38.2682 43.3971 38.51 43.2564 38.752C43.0311 39.1394 42.8055 39.5266 42.5784 39.9129C42.1354 40.667 41.7005 41.425 41.2739 42.1885C41.1786 42.3583 41.0833 42.528 40.9879 42.6978C40.8483 42.9464 40.7091 43.1953 40.5715 43.4451C40.444 43.6765 40.3146 43.9068 40.1852 44.1371C40.1116 44.2697 40.038 44.4024 39.9622 44.539C39.7288 44.8707 39.5944 44.9931 39.2135 45.1191C38.5359 45.0934 38.1737 44.8482 37.6538 44.4295C37.5824 44.3723 37.5111 44.315 37.4376 44.256C37.2819 44.1307 37.1266 44.0049 36.9718 43.8785C36.6994 43.6594 36.4224 43.4471 36.1443 43.2351C35.9524 43.0861 35.7605 42.937 35.5687 42.7878C35.4762 42.7181 35.3838 42.6485 35.2886 42.5768C34.8685 42.2441 34.6481 42.0651 34.4805 41.5446C34.4862 41.0918 34.6048 40.8776 34.8791 40.5221C35.2632 40.33 35.5018 40.3407 35.9299 40.3907C36.2654 40.5806 36.549 40.8218 36.8411 41.0721C36.9953 41.2 37.1498 41.3278 37.3044 41.4553C37.3798 41.5182 37.4553 41.5811 37.5331 41.6459C37.9059 41.946 38.2959 42.2182 38.6881 42.4922C38.7342 42.4093 38.7802 42.3263 38.8277 42.2408C43.3389 34.1273 43.3389 34.1273 44.4672 34.2176Z" fill="#293C95"/>
<path d="M51.6896 48.9277C52.2016 49.269 52.3336 49.6851 52.5634 50.233C52.6306 50.3895 52.6306 50.3895 52.6993 50.5493C52.8427 50.8839 52.9844 51.2192 53.1262 51.5546C53.2211 51.7765 53.3161 51.9983 53.4112 52.22C53.8573 53.2627 54.2991 54.3067 54.7105 55.3636C53.6336 55.028 52.6265 54.5785 51.6045 54.1038C50.6301 53.6428 50.6301 53.6428 49.5881 53.6561C48.9686 54.3005 48.7377 55.2431 48.4389 56.0695C48.3849 56.2163 48.3309 56.3631 48.2752 56.5144C48.1428 56.8747 48.0113 57.2354 47.8807 57.5964C47.4734 56.9856 47.2214 56.3094 46.9366 55.6345C46.8741 55.4903 46.8115 55.3461 46.7471 55.1976C46.6886 55.0589 46.6301 54.9201 46.5698 54.7771C46.5157 54.6503 46.4617 54.5235 46.406 54.3929C46.2982 54.0288 46.286 53.87 46.4359 53.5248C46.7288 53.2944 46.7288 53.2944 47.1172 53.0569C48.8778 51.93 50.4804 50.65 51.6896 48.9277Z" fill="#FAFAFA"/>
<path d="M27.6567 48.9277C28.1169 49.0812 28.1845 49.1996 28.4611 49.5845C29.7678 51.3032 31.5037 52.4996 33.3044 53.6561C33.2203 54.1604 33.0717 54.596 32.873 55.0665C32.8141 55.2066 32.7553 55.3467 32.6947 55.4911C32.6331 55.6359 32.5716 55.7808 32.5082 55.93C32.4151 56.1511 32.4151 56.1511 32.3201 56.3766C32.1672 56.7397 32.0137 57.1025 31.8597 57.4651C31.4667 57.2686 31.4435 56.99 31.2932 56.5831C31.236 56.4307 31.1788 56.2782 31.1198 56.1211C31.0606 55.9605 31.0013 55.7999 30.9402 55.6345C30.8232 55.3184 30.7056 55.0025 30.5873 54.6868C30.5353 54.546 30.4833 54.4051 30.4298 54.26C30.3029 53.9056 30.3029 53.9056 30.0208 53.6561C29.3291 53.5943 28.8546 53.7152 28.2256 53.9963C28.1466 54.0309 28.0675 54.0656 27.986 54.1013C27.7359 54.2113 27.487 54.3235 27.238 54.436C26.9875 54.5475 26.7367 54.6585 26.4858 54.7692C26.259 54.8695 26.0327 54.971 25.8065 55.0726C25.5006 55.2002 25.2217 55.2973 24.8984 55.3636C25.4838 53.9119 26.0981 52.4733 26.7208 51.0374C26.7595 50.9483 26.7981 50.8591 26.838 50.7672C27.4985 49.244 27.4985 49.244 27.6567 48.9277Z" fill="#FAFAFA"/>
<path d="M16.5198 23.3983C16.6267 23.3978 16.7335 23.3973 16.8436 23.3968C17.1957 23.3957 17.5478 23.3975 17.8999 23.3994C18.1451 23.3995 18.3902 23.3994 18.6354 23.3992C19.1487 23.3993 19.662 23.4006 20.1752 23.403C20.8332 23.406 21.4911 23.4061 22.149 23.4052C22.6551 23.4047 23.1611 23.4056 23.6671 23.4069C23.9097 23.4074 24.1523 23.4075 24.395 23.4073C24.7339 23.4073 25.0728 23.4089 25.4117 23.4111C25.5119 23.4108 25.6122 23.4104 25.7154 23.4101C26.6119 23.4191 26.6119 23.4191 26.9991 23.7098C27.1879 24.1449 27.1879 24.1449 27.2617 24.6292C27.1153 24.9501 26.9841 25.1695 26.7364 25.4173C26.3795 25.4333 26.0258 25.4408 25.6688 25.4426C25.5569 25.4437 25.445 25.4448 25.3297 25.4459C24.9577 25.4492 24.5857 25.4513 24.2136 25.4532C24.0235 25.4543 24.0235 25.4543 23.8296 25.4553C23.1588 25.4589 22.4879 25.4614 21.8171 25.4633C21.1232 25.4655 20.4294 25.4714 19.7355 25.4781C19.2029 25.4825 18.6703 25.484 18.1376 25.4847C17.8818 25.4856 17.626 25.4876 17.3702 25.4908C17.0123 25.4949 16.6546 25.4949 16.2967 25.494C16.1377 25.4972 16.1377 25.4972 15.9755 25.5005C15.4649 25.4948 15.2291 25.4639 14.846 25.1139C14.6527 24.7606 14.6527 24.7606 14.6445 24.2845C14.7841 23.8412 14.7841 23.8412 15.0537 23.6195C15.5478 23.3995 15.9893 23.3929 16.5198 23.3983Z" fill="#293C95"/>
<path d="M16.1863 29.5682C16.2737 29.5673 16.3611 29.5664 16.4512 29.5655C16.7394 29.5631 17.0276 29.5636 17.3158 29.5643C17.5167 29.5637 17.7176 29.563 17.9184 29.5622C18.3392 29.561 18.76 29.5614 19.1807 29.5627C19.7193 29.5642 20.2577 29.5615 20.7963 29.5577C21.211 29.5553 21.6258 29.5553 22.0406 29.5561C22.2391 29.5561 22.4376 29.5553 22.6361 29.5537C22.9141 29.5517 23.1918 29.5531 23.4697 29.5554C23.7067 29.5554 23.7067 29.5554 23.9484 29.5554C24.453 29.6346 24.6725 29.7812 25.0246 30.1466C25.0985 30.6063 25.0985 30.6063 25.0246 31.066C24.7332 31.4632 24.5764 31.5788 24.0855 31.659C23.8412 31.6602 23.8412 31.6602 23.5919 31.6615C23.5017 31.6626 23.4115 31.6637 23.3186 31.6649C23.0211 31.6679 22.7239 31.667 22.4264 31.6658C22.2194 31.6665 22.0123 31.6673 21.8052 31.6683C21.3715 31.6696 20.9379 31.669 20.5042 31.6671C19.9485 31.6649 19.393 31.668 18.8374 31.6726C18.4099 31.6755 17.9824 31.6753 17.5549 31.6742C17.35 31.6741 17.1452 31.675 16.9403 31.6769C16.6538 31.6792 16.3676 31.6773 16.0812 31.6743C15.8368 31.6741 15.8368 31.6741 15.5875 31.6739C15.1738 31.5914 15.1738 31.5914 14.8544 31.2876C14.6484 30.9347 14.6484 30.9347 14.6484 30.4586C14.8956 29.6245 15.3737 29.5718 16.1863 29.5682Z" fill="#293C95"/>
<path d="M6.42837 35.7412C6.64666 35.7387 6.64666 35.7387 6.86937 35.7361C7.02658 35.7365 7.18378 35.7369 7.34575 35.7373C7.58793 35.7363 7.58793 35.7363 7.83501 35.7352C8.2643 35.7341 8.69354 35.7351 9.12283 35.7366C9.55875 35.7369 9.99463 35.7323 10.4305 35.7288C10.7622 35.7286 11.0939 35.7287 11.4256 35.7291C11.5826 35.7276 11.7395 35.7261 11.9012 35.7246C12.1201 35.7265 12.1201 35.7265 12.3435 35.7283C12.5359 35.7284 12.5359 35.7284 12.7323 35.7284C13.1715 35.8135 13.3269 35.9692 13.5974 36.3196C13.6713 36.7793 13.6713 36.7793 13.5974 37.239C13.3079 37.5946 13.0668 37.7454 12.6115 37.8141C12.1895 37.8364 11.7707 37.8406 11.3481 37.8388C11.1157 37.84 11.1157 37.84 10.8786 37.8413C10.5514 37.8422 10.2242 37.8418 9.89695 37.8401C9.39617 37.8383 8.89571 37.8428 8.39496 37.8478C8.07686 37.8479 7.75877 37.8476 7.44067 37.847C7.29098 37.8487 7.14128 37.8505 6.98706 37.8523C5.9548 37.8401 5.9548 37.8401 5.42023 37.4606C5.19141 37.1077 5.19141 37.1077 5.19141 36.6316C5.41124 35.8896 5.66705 35.7454 6.42837 35.7412Z" fill="#293C95"/>
<path d="M6.54937 29.5673C6.75913 29.5648 6.75913 29.5648 6.97313 29.5623C7.1235 29.5627 7.27387 29.5631 7.42879 29.5635C7.58392 29.5628 7.73904 29.5621 7.89887 29.5614C8.22688 29.5605 8.5549 29.5607 8.88291 29.5618C9.38481 29.5629 9.88651 29.5592 10.3884 29.555C10.7071 29.5548 11.0258 29.5549 11.3445 29.5553C11.5696 29.553 11.5696 29.553 11.7993 29.5508C12.8339 29.5599 12.8339 29.5599 13.3652 29.8584C13.5984 30.1458 13.5984 30.1458 13.6722 30.6055C13.5863 31.1402 13.4912 31.2622 13.073 31.5906C12.7341 31.6582 12.7341 31.6582 12.3465 31.6606C12.201 31.6627 12.0554 31.6648 11.9055 31.6669C11.749 31.6663 11.5925 31.6656 11.4312 31.665C11.2699 31.6658 11.1086 31.6666 10.9425 31.6674C10.6016 31.6684 10.2606 31.6679 9.91971 31.6663C9.3973 31.6645 8.8752 31.6689 8.35282 31.6739C8.02172 31.6741 7.69062 31.6738 7.35953 31.6732C7.203 31.6749 7.04647 31.6767 6.8852 31.6784C5.80877 31.6663 5.80877 31.6663 5.35243 31.2868C5.13234 30.8015 5.17364 30.5209 5.3237 30.0144C5.7186 29.6295 6.00675 29.5705 6.54937 29.5673Z" fill="#293C95"/>
<path d="M6.67201 23.3963C6.87386 23.3945 6.87386 23.3945 7.0798 23.3926C7.22374 23.3934 7.36769 23.3942 7.51599 23.395C7.6651 23.3946 7.81421 23.3942 7.96784 23.3939C8.2827 23.3936 8.59756 23.3943 8.91242 23.396C9.39411 23.3981 9.87565 23.396 10.3573 23.3935C10.6635 23.3937 10.9696 23.3942 11.2757 23.395C11.4916 23.3938 11.4916 23.3938 11.7119 23.3926C11.8465 23.3938 11.981 23.3951 12.1197 23.3963C12.2376 23.3967 12.3555 23.397 12.4769 23.3973C12.9228 23.4641 13.2782 23.6521 13.5989 23.9727C13.676 24.7908 13.676 24.7908 13.379 25.1807C13.0048 25.4707 12.8163 25.4846 12.347 25.4875C12.2015 25.4896 12.0559 25.4917 11.906 25.4939C11.7495 25.4932 11.593 25.4925 11.4317 25.4919C11.2704 25.4927 11.1091 25.4935 10.943 25.4943C10.6021 25.4953 10.2611 25.4949 9.9202 25.4932C9.39779 25.4914 8.87569 25.4958 8.35331 25.5009C8.02221 25.501 7.69112 25.5007 7.36002 25.5001C7.2035 25.5018 7.04697 25.5036 6.8857 25.5054C5.80914 25.4932 5.80914 25.4932 5.35344 25.1137C5.13097 24.6248 5.16399 24.3502 5.3242 23.8414C5.77718 23.4999 6.10984 23.3978 6.67201 23.3963Z" fill="#293C95"/>
<path d="M15.8854 35.7383C16.0309 35.7363 16.1765 35.7342 16.3264 35.732C16.4836 35.732 16.6408 35.732 16.8028 35.7319C16.9642 35.7309 17.1257 35.7299 17.292 35.7289C17.7213 35.7271 18.1506 35.7274 18.5799 35.7282C19.0158 35.7276 19.4517 35.7214 19.8876 35.7165C20.2193 35.7159 20.551 35.7155 20.8826 35.7155C21.1181 35.7123 21.1181 35.7123 21.3582 35.709C22.4381 35.718 22.4381 35.718 22.8947 36.097C23.1142 36.5824 23.0732 36.8632 22.9231 37.3696C22.5285 37.7541 22.2395 37.8139 21.6974 37.8188C21.5576 37.8209 21.4177 37.823 21.2737 37.8251C21.0481 37.8252 21.0481 37.8252 20.818 37.8252C20.6629 37.8262 20.5077 37.8272 20.3479 37.8282C20.0199 37.8297 19.6919 37.83 19.3639 37.8295C18.862 37.8293 18.3603 37.8348 17.8584 37.8406C17.5397 37.8413 17.221 37.8416 16.9023 37.8416C16.6772 37.8449 16.6772 37.8449 16.4475 37.8482C15.4117 37.8391 15.4117 37.8391 14.877 37.4602C14.6484 37.1069 14.6484 37.1069 14.6484 36.6308C14.8682 35.8891 15.1245 35.7449 15.8854 35.7383Z" fill="#293C95"/>
<path d="M14.7323 10.4698C15.4768 10.8697 15.9254 11.3607 16.2263 12.1526C16.2791 12.7548 16.2275 13.1846 15.9636 13.7287C15.4701 13.5075 15.4701 13.5075 15.274 13.2526C14.8777 12.9412 14.4841 13.0331 13.9934 13.072C13.695 13.3173 13.695 13.3173 13.6815 13.7041C13.7412 14.2119 13.9221 14.4037 14.2561 14.7795C14.2561 14.8662 14.2561 14.9529 14.2561 15.0422C13.476 15.1072 12.9308 14.9724 12.286 14.5168C11.7028 13.9739 11.521 13.3875 11.4805 12.6026C11.5169 11.9373 11.7754 11.5031 12.1957 11.0034C13.0177 10.3151 13.6992 10.1314 14.7323 10.4698Z" fill="#F7F7F7"/>
<path d="M7.16406 41.9668C8.37768 41.9668 9.59129 41.9668 10.8417 41.9668C10.8417 43.007 10.8417 44.0473 10.8417 45.119C9.62807 45.119 8.41445 45.119 7.16406 45.119C7.16406 44.0788 7.16406 43.0386 7.16406 41.9668Z" fill="#FEFEFE"/>
<path d="M17.0156 41.9668C18.1859 41.9668 19.3562 41.9668 20.5619 41.9668C20.5619 43.007 20.5619 44.0473 20.5619 45.119C19.3916 45.119 18.2214 45.119 17.0156 45.119C17.0156 44.0788 17.0156 43.0386 17.0156 41.9668Z" fill="white"/>
<path d="M23.7143 11.627C24.0722 11.936 24.2153 12.2344 24.3711 12.6777C24.0243 12.6777 23.6776 12.6777 23.3203 12.6777C23.5666 11.9225 23.5666 11.9225 23.7143 11.627Z" fill="#F2F2F2"/>
</svg>
